{
  "asset": {
    "generator": "UnityGltf 2.18.5, Unity 6000.3.1f1, URP",
    "version": "2.0"
  },
  "scene": 0,
  "scenes": [
    {
      "nodes": [
        0
      ],
      "name": "mdlBeetle"
    }
  ],
  "accessors": [
    {
      "bufferView": 0,
      "componentType": 5126,
      "count": 4379,
      "type": "VEC3",
      "max": [
        2.9752957820892334,
        0.86153686046600342,
        2.986297607421875
      ],
      "min": [
        -2.9752957820892334,
        -0.86323237419128418,
        0.0022094673477113247
      ]
    },
    {
      "bufferView": 1,
      "componentType": 5126,
      "count": 4379,
      "type": "VEC3",
      "max": [
        1.0,
        1.0,
        1.0
      ],
      "min": [
        -1.0,
        -1.0,
        -1.0
      ]
    },
    {
      "bufferView": 2,
      "componentType": 5126,
      "count": 4379,
      "type": "VEC4",
      "max": [
        1.0,
        1.0,
        0.99371051788330078,
        1.0
      ],
      "min": [
        -1.0,
        -1.0,
        -0.99380773305892944,
        -1.0
      ]
    },
    {
      "bufferView": 3,
      "componentType": 5126,
      "count": 4379,
      "type": "VEC2",
      "max": [
        1.386909008026123,
        0.99487072229385376
      ],
      "min": [
        -1.2141588926315308,
        0.010427594184875488
      ]
    },
    {
      "bufferView": 4,
      "componentType": 5126,
      "count": 4379,
      "type": "VEC2",
      "max": [
        0.9980732798576355,
        0.99609375
      ],
      "min": [
        0.00390625,
        0.0018761157989501953
      ]
    },
    {
      "bufferView": 5,
      "componentType": 5126,
      "count": 4379,
      "type": "VEC4",
      "max": [
        1.0,
        1.0,
        1.0,
        1.0
      ],
      "min": [
        1.0,
        1.0,
        1.0,
        1.0
      ]
    },
    {
      "bufferView": 6,
      "componentType": 5123,
      "count": 13680,
      "type": "SCALAR",
      "max": [
        4378.0
      ],
      "min": [
        0.0
      ]
    },
    {
      "bufferView": 7,
      "componentType": 5126,
      "count": 29,
      "type": "MAT4"
    },
    {
      "bufferView": 8,
      "componentType": 5123,
      "count": 4379,
      "type": "VEC4",
      "max": [
        28.0,
        24.0,
        0.0,
        0.0
      ],
      "min": [
        10.0,
        0.0,
        0.0,
        0.0
      ]
    },
    {
      "bufferView": 9,
      "componentType": 5126,
      "count": 4379,
      "type": "VEC4",
      "max": [
        1.0,
        0.5,
        0.0,
        0.0
      ],
      "min": [
        0.5,
        0.0,
        0.0,
        0.0
      ]
    }
  ],
  "buffers": [
    {
      "uri": "mdlBeetle.bin",
      "byteLength": 449600
    }
  ],
  "bufferViews": [
    {
      "buffer": 0,
      "byteLength": 52548,
      "byteStride": 12,
      "target": 34962
    },
    {
      "buffer": 0,
      "byteOffset": 52548,
      "byteLength": 52548,
      "byteStride": 12,
      "target": 34962
    },
    {
      "buffer": 0,
      "byteOffset": 105096,
      "byteLength": 70064,
      "target": 34962
    },
    {
      "buffer": 0,
      "byteOffset": 175160,
      "byteLength": 35032,
      "target": 34962
    },
    {
      "buffer": 0,
      "byteOffset": 210192,
      "byteLength": 35032,
      "target": 34962
    },
    {
      "buffer": 0,
      "byteOffset": 245224,
      "byteLength": 70064,
      "target": 34962
    },
    {
      "buffer": 0,
      "byteOffset": 315288,
      "byteLength": 27360,
      "target": 34963
    },
    {
      "buffer": 0,
      "byteOffset": 342648,
      "byteLength": 1856
    },
    {
      "buffer": 0,
      "byteOffset": 344504,
      "byteLength": 35032,
      "target": 34962
    },
    {
      "buffer": 0,
      "byteOffset": 379536,
      "byteLength": 70064,
      "target": 34962
    }
  ],
  "materials": [
    {
      "pbrMetallicRoughness": {
        "metallicFactor": 0.0,
        "roughnessFactor": 0.5
      },
      "name": "Default-Material"
    }
  ],
  "meshes": [
    {
      "primitives": [
        {
          "attributes": {
            "POSITION": 0,
            "NORMAL": 1,
            "TANGENT": 2,
            "TEXCOORD_0": 3,
            "TEXCOORD_1": 4,
            "COLOR_0": 5,
            "JOINTS_0": 8,
            "WEIGHTS_0": 9
          },
          "indices": 6,
          "material": 0
        }
      ],
      "name": "Mesh"
    }
  ],
  "nodes": [
    {
      "children": [
        1,
        46
      ],
      "name": "mdlBeetle"
    },
    {
      "children": [
        2
      ],
      "rotation": [
        -0.7071068,
        0.0,
        0.0,
        0.7071067
      ],
      "name": "BeetleArmature"
    },
    {
      "children": [
        3,
        6,
        9,
        40,
        43
      ],
      "rotation": [
        1.88313948E-07,
        -0.7071068,
        0.7071067,
        -1.883139E-07
      ],
      "translation": [
        -3.13928572E-09,
        2.17610216,
        0.482770115
      ],
      "name": "ROOT"
    },
    {
      "children": [
        4
      ],
      "rotation": [
        0.2843521,
        -0.7086524,
        0.599276662,
        0.240464449
      ],
      "scale": [
        1.0,
        0.9999999,
        0.9999999
      ],
      "translation": [
        -0.617362,
        0.383232862,
        0.966885746
      ],
      "name": "armIK.l"
    },
    {
      "children": [
        5
      ],
      "rotation": [
        -1.77666255E-08,
        -5.351267E-08,
        0.382683545,
        0.9238795
      ],
      "scale": [
        0.99999994,
        0.9999998,
        0.99999994
      ],
      "translation": [
        -1.51003623,
        1.882066,
        2.05893683
      ],
      "name": "armPole.l"
    },
    {
      "translation": [
        0.0,
        0.365506023,
        0.0
      ],
      "name": "armPole.l_end"
    },
    {
      "children": [
        7
      ],
      "rotation": [
        -0.29709,
        -0.7403983,
        0.559581637,
        -0.224536031
      ],
      "scale": [
        1.0,
        0.99999994,
        0.99999994
      ],
      "translation": [
        0.8031116,
        0.40240553,
        1.43601143
      ],
      "name": "armIK.r"
    },
    {
      "children": [
        8
      ],
      "rotation": [
        -2.81613914E-08,
        -6.295625E-08,
        -0.382683784,
        0.9238794
      ],
      "translation": [
        1.77094042,
        2.5998373,
        1.70527053
      ],
      "name": "armPole.r"
    },
    {
      "translation": [
        0.0,
        0.365506023,
        0.0
      ],
      "name": "armPole.r_end"
    },
    {
      "children": [
        10,
        33
      ],
      "rotation": [
        0.7071068,
        2.21972542E-07,
        -2.2197257E-07,
        0.7071067
      ],
      "translation": [
        -1.72786045E-07,
        -0.677051544,
        -0.275210321
      ],
      "name": "base"
    },
    {
      "children": [
        11,
        13,
        23
      ],
      "rotation": [
        0.0383911841,
        -0.9038333,
        -0.417995453,
        0.08301397
      ],
      "scale": [
        0.99999994,
        0.9999999,
        0.9999999
      ],
      "translation": [
        -5.17946056E-17,
        0.492781222,
        3.420213E-09
      ],
      "name": "chest"
    },
    {
      "children": [
        12
      ],
      "rotation": [
        -0.35605976,
        -0.8555215,
        -0.00358722545,
        0.3758877
      ],
      "scale": [
        1.00000024,
        1.00000012,
        1.00000012
      ],
      "translation": [
        -7.791555E-09,
        0.844533443,
        1.31709488E-09
      ],
      "name": "Head"
    },
    {
      "translation": [
        0.0,
        0.358215868,
        0.0
      ],
      "name": "Head_end"
    },
    {
      "children": [
        14
      ],
      "rotation": [
        0.7871139,
        0.21318011,
        0.571167767,
        0.09366659
      ],
      "translation": [
        0.486471176,
        0.393581539,
        -0.002390638
      ],
      "name": "upper_arm.l"
    },
    {
      "children": [
        15,
        17,
        19,
        21
      ],
      "rotation": [
        -0.204518944,
        0.242104948,
        -0.705403864,
        0.6340052
      ],
      "scale": [
        0.9999996,
        1.0,
        1.00000012
      ],
      "translation": [
        2.98023224E-08,
        1.22304606,
        -7.4505806E-08
      ],
      "name": "lower_arm.l"
    },
    {
      "children": [
        16
      ],
      "rotation": [
        0.110903621,
        0.6475914,
        -0.105650082,
        0.7464341
      ],
      "scale": [
        1.0,
        0.9999998,
        1.00000012
      ],
      "translation": [
        -0.016002316,
        1.11938846,
        0.0389884859
      ],
      "name": "finger1.l"
    },
    {
      "translation": [
        0.0,
        0.227278173,
        0.0
      ],
      "name": "finger1.l_end"
    },
    {
      "children": [
        18
      ],
      "rotation": [
        0.106449708,
        0.6440183,
        -0.109431431,
        0.749622345
      ],
      "scale": [
        0.999999762,
        0.99999994,
        0.9999999
      ],
      "translation": [
        -0.0150919221,
        1.1288892,
        0.00147782732
      ],
      "name": "finger2.l"
    },
    {
      "translation": [
        0.0,
        0.329374462,
        0.0
      ],
      "name": "finger2.l_end"
    },
    {
      "children": [
        20
      ],
      "rotation": [
        0.106450021,
        0.644018,
        -0.109431319,
        0.7496226
      ],
      "scale": [
        0.999999166,
        1.00000012,
        0.99999994
      ],
      "translation": [
        -0.009363003,
        1.12819684,
        -0.05197884
      ],
      "name": "finger3.l"
    },
    {
      "translation": [
        0.0,
        0.329374433,
        0.0
      ],
      "name": "finger3.l_end"
    },
    {
      "children": [
        22
      ],
      "rotation": [
        -0.162667036,
        0.641832054,
        0.126079649,
        0.7387117
      ],
      "scale": [
        0.99999994,
        0.99999994,
        1.00000012
      ],
      "translation": [
        -0.08225243,
        0.7170598,
        -0.003198564
      ],
      "name": "thumb.l"
    },
    {
      "translation": [
        0.0,
        0.227278009,
        0.0
      ],
      "name": "thumb.l_end"
    },
    {
      "children": [
        24
      ],
      "rotation": [
        0.8827944,
        -0.292062461,
        -0.331813633,
        0.15897578
      ],
      "scale": [
        0.9999999,
        1.00000024,
        0.9999995
      ],
      "translation": [
        -0.486471057,
        0.393581539,
        -0.002390623
      ],
      "name": "upper_arm.r"
    },
    {
      "children": [
        25,
        27,
        29,
        31
      ],
      "rotation": [
        -0.192386135,
        -0.257911533,
        0.6635564,
        0.675397754
      ],
      "scale": [
        0.9999999,
        0.9999999,
        1.00000024
      ],
      "translation": [
        1.3038516E-07,
        1.22304654,
        3.427267E-07
      ],
      "name": "lower_arm.r"
    },
    {
      "children": [
        26
      ],
      "rotation": [
        0.138778165,
        -0.6431808,
        0.12982671,
        0.741757452
      ],
      "scale": [
        0.999999762,
        0.999999762,
        0.9999999
      ],
      "translation": [
        0.0149199069,
        1.11086,
        0.03692416
      ],
      "name": "finger1.r"
    },
    {
      "translation": [
        0.0,
        0.227278173,
        0.0
      ],
      "name": "finger1.r_end"
    },
    {
      "children": [
        28
      ],
      "rotation": [
        0.134877071,
        -0.6393914,
        0.133840859,
        0.7450325
      ],
      "scale": [
        1.0,
        1.0,
        0.9999998
      ],
      "translation": [
        0.014748659,
        1.127793,
        0.00211919472
      ],
      "name": "finger2.r"
    },
    {
      "translation": [
        0.0,
        0.329374462,
        0.0
      ],
      "name": "finger2.r_end"
    },
    {
      "children": [
        30
      ],
      "rotation": [
        0.134877428,
        -0.6393912,
        0.133840784,
        0.7450327
      ],
      "scale": [
        1.0,
        1.00000012,
        0.99999994
      ],
      "translation": [
        0.0107887108,
        1.1378212,
        -0.0505558848
      ],
      "name": "finger3.r"
    },
    {
      "translation": [
        0.0,
        0.329374433,
        0.0
      ],
      "name": "finger3.r_end"
    },
    {
      "children": [
        32
      ],
      "rotation": [
        -0.277703136,
        -0.6137328,
        -0.226222143,
        0.7035883
      ],
      "scale": [
        0.9999998,
        0.999999344,
        0.9999999
      ],
      "translation": [
        0.08225237,
        0.717059851,
        -0.003198592
      ],
      "name": "thumb.r"
    },
    {
      "translation": [
        0.0,
        0.227278009,
        0.0
      ],
      "name": "thumb.r_end"
    },
    {
      "children": [
        34,
        37
      ],
      "rotation": [
        0.178720251,
        0.195263624,
        -0.9636492,
        -0.0362142846
      ],
      "translation": [
        -5.17946056E-17,
        0.492781222,
        3.420213E-09
      ],
      "name": "hip"
    },
    {
      "children": [
        35
      ],
      "rotation": [
        -0.09698249,
        -0.4419561,
        -0.222839475,
        0.863488138
      ],
      "scale": [
        0.99999994,
        1.00000012,
        0.999999762
      ],
      "translation": [
        0.241166711,
        0.244943336,
        -0.03702607
      ],
      "name": "thigh.l"
    },
    {
      "children": [
        36
      ],
      "rotation": [
        0.400696278,
        -0.696460545,
        0.5953026,
        -0.000287082017
      ],
      "scale": [
        0.9999998,
        1.00000072,
        0.999999464
      ],
      "translation": [
        7.4505806E-08,
        0.6264808,
        -1.1920929E-07
      ],
      "name": "calf.l"
    },
    {
      "translation": [
        0.0,
        0.7620121,
        0.0
      ],
      "name": "calf.l_end"
    },
    {
      "children": [
        38
      ],
      "rotation": [
        -0.190333426,
        0.09020379,
        0.0780024,
        0.974449635
      ],
      "scale": [
        0.9999998,
        1.0,
        0.99999994
      ],
      "translation": [
        -0.241166741,
        0.244943187,
        -0.0370262861
      ],
      "name": "thigh.r"
    },
    {
      "children": [
        39
      ],
      "rotation": [
        -0.319685578,
        -0.819893956,
        0.4749473,
        0.0003378046
      ],
      "scale": [
        0.99999994,
        1.00000072,
        0.9999998
      ],
      "translation": [
        0.0,
        0.6264813,
        4.02331352E-07
      ],
      "name": "calf.r"
    },
    {
      "translation": [
        0.0,
        0.7620121,
        0.0
      ],
      "name": "calf.r_end"
    },
    {
      "children": [
        41
      ],
      "rotation": [
        1.80380255E-07,
        -0.7071068,
        0.7071067,
        1.962476E-07
      ],
      "translation": [
        -0.449108243,
        0.4697788,
        -0.0296141654
      ],
      "name": "footIK.l"
    },
    {
      "children": [
        42
      ],
      "rotation": [
        8.001442E-18,
        -1.12198952E-08,
        -9.45926448E-09,
        1.0
      ],
      "scale": [
        1.0,
        0.99999994,
        1.0
      ],
      "translation": [
        0.03189989,
        3.62380981,
        0.776227534
      ],
      "name": "footPole.l"
    },
    {
      "translation": [
        0.0,
        0.196912289,
        0.0
      ],
      "name": "footPole.l_end"
    },
    {
      "children": [
        44
      ],
      "rotation": [
        1.803803E-07,
        -0.7071068,
        0.7071067,
        1.96247555E-07
      ],
      "translation": [
        0.449108064,
        0.4697788,
        -0.249975964
      ],
      "name": "footIK.r"
    },
    {
      "children": [
        45
      ],
      "rotation": [
        8.002177E-18,
        -1.12198384E-08,
        -9.45926448E-09,
        1.0
      ],
      "scale": [
        1.0,
        0.99999994,
        1.0
      ],
      "translation": [
        -0.03189978,
        3.62380981,
        0.776227534
      ],
      "name": "footPole.r"
    },
    {
      "translation": [
        0.0,
        0.196912289,
        0.0
      ],
      "name": "footPole.r_end"
    },
    {
      "skin": 0,
      "mesh": 0,
      "rotation": [
        -0.7071068,
        0.0,
        0.0,
        0.7071067
      ],
      "name": "Mesh"
    }
  ],
  "skins": [
    {
      "inverseBindMatrices": 7,
      "joints": [
        2,
        43,
        44,
        40,
        41,
        6,
        7,
        3,
        4,
        9,
        10,
        11,
        23,
        24,
        25,
        27,
        29,
        31,
        13,
        14,
        15,
        17,
        19,
        21,
        33,
        37,
        38,
        34,
        35
      ]
    }
  ]
}